<svg viewBox='0 0 429.603 133.574'>
  <path fill="#255171" d="M124.26,93.672h10.996v-4.78H124.26v-6.136h14.756v-4.761h-18.681c-1.023,0-1.853,0.829-1.853,1.852v23.962  c0,1.023,0.83,1.853,1.853,1.853h19.339v-4.78H124.26V93.672z M160.565,95.573c0,1.53-0.173,2.672-0.518,3.425  c-0.345,0.753-0.887,1.336-1.628,1.751c-0.74,0.414-1.825,0.621-3.256,0.621c-1.468,0-2.609-0.273-3.425-0.818  c-0.816-0.547-1.342-1.177-1.581-1.892c-0.238-0.702-0.357-1.732-0.357-3.087V77.995h-5.778v16.957c0,1.494,0.062,2.635,0.188,3.425  c0.226,1.33,0.583,2.435,1.073,3.312c0.489,0.879,1.182,1.679,2.079,2.4c0.897,0.721,2.017,1.279,3.36,1.674  c1.342,0.396,2.829,0.594,4.46,0.594c1.544,0,2.939-0.177,4.187-0.527c1.249-0.352,2.3-0.815,3.153-1.393  c0.853-0.576,1.586-1.326,2.202-2.25c0.615-0.921,1.06-2.054,1.336-3.396c0.176-0.877,0.264-2.157,0.264-3.839V77.995h-5.759V95.573  z M178.351,83.322c1.079-0.69,2.327-1.036,3.745-1.036c1.68,0,3.054,0.478,4.122,1.43c0.79,0.715,1.404,1.839,1.844,3.369h5.778  c-0.126-1.179-0.37-2.207-0.734-3.086c-0.527-1.281-1.29-2.422-2.287-3.426c-0.997-1.003-2.252-1.8-3.764-2.39  c-1.512-0.59-3.19-0.885-5.034-0.885c-2.07,0-3.984,0.401-5.74,1.204c-1.381,0.615-2.56,1.459-3.538,2.531  c-0.979,1.075-1.757,2.376-2.334,3.905c-0.829,2.172-1.243,4.549-1.243,7.134c0,2.058,0.304,4.021,0.913,5.891  c0.609,1.869,1.487,3.438,2.635,4.704c1.148,1.268,2.541,2.2,4.178,2.795c1.638,0.596,3.404,0.895,5.298,0.895  c1.606,0,3.143-0.289,4.611-0.866c1.468-0.577,2.707-1.39,3.717-2.438c1.01-1.047,1.779-2.167,2.306-3.358  c0.363-0.829,0.701-2.001,1.016-3.521h-5.741c-0.365,1.269-0.806,2.256-1.326,2.964c-0.521,0.71-1.208,1.259-2.061,1.648  c-0.854,0.388-1.8,0.583-2.842,0.583c-1.317,0-2.5-0.336-3.548-1.007c-1.047-0.67-1.872-1.744-2.474-3.22  c-0.602-1.474-0.903-3.221-0.903-5.24s0.297-3.783,0.892-5.288C176.434,85.11,177.271,84.012,178.351,83.322 M203.794,77.995h-5.777  v25.813c0,1.023,0.829,1.853,1.852,1.853h17.683v-4.987h-13.758V77.995z M221.317,105.661h5.777V77.995h-5.777V105.661z   M243.083,77.995h-12.101v27.666h10.501c2.295,0,3.999-0.11,5.109-0.33c1.111-0.219,2.118-0.612,3.021-1.176  c0.903-0.564,1.734-1.431,2.494-2.598c0.758-1.167,1.367-2.635,1.825-4.403c0.458-1.77,0.688-3.701,0.688-5.795  c0-4.431-1.116-7.874-3.351-10.333C249.438,79.006,246.709,77.995,243.083,77.995 M247.958,96.74  c-0.302,0.991-0.697,1.769-1.187,2.334c-0.489,0.563-1.136,1.006-1.938,1.328c-0.804,0.317-1.814,0.479-3.03,0.479h-5.044V82.756  h5.044c1.329,0,2.368,0.148,3.114,0.443c0.747,0.295,1.404,0.806,1.976,1.535c0.571,0.727,1.017,1.677,1.337,2.85  c0.319,1.174,0.48,2.449,0.48,3.83C248.711,93.296,248.459,95.072,247.958,96.74 M264.821,93.672h10.996v-4.78h-10.996v-6.136  h14.755v-4.761h-18.681c-1.022,0-1.852,0.829-1.852,1.852v23.962c0,1.023,0.829,1.853,1.852,1.853h19.34v-4.78h-15.414V93.672z   M302.368,91.132c-0.903-0.502-2.09-0.923-3.558-1.261l-5.683-1.318c-1.694-0.376-2.73-0.703-3.105-0.978  c-0.641-0.464-0.961-1.142-0.961-2.032c0-0.992,0.405-1.817,1.215-2.475c0.81-0.66,2.079-0.989,3.811-0.989  c1.243,0,2.293,0.191,3.152,0.574s1.461,0.865,1.808,1.448c0.345,0.583,0.536,1.31,0.573,2.176h5.553  c-0.038-1.256-0.18-2.27-0.424-3.041s-0.646-1.524-1.205-2.259c-0.559-0.733-1.268-1.374-2.126-1.919  c-0.86-0.546-1.914-0.976-3.162-1.29c-1.248-0.312-2.575-0.47-3.98-0.47c-1.795,0-3.507,0.292-5.138,0.875  c-1.632,0.583-2.939,1.524-3.924,2.823c-0.985,1.299-1.478,2.958-1.478,4.978c0,1.129,0.172,2.131,0.518,3.001  c0.345,0.872,0.821,1.601,1.43,2.184c0.609,0.585,1.496,1.114,2.663,1.592c0.891,0.35,2.284,0.746,4.179,1.185l2.974,0.696  c1.343,0.314,2.346,0.604,3.011,0.866c0.665,0.251,1.164,0.589,1.496,1.017c0.333,0.427,0.499,0.946,0.499,1.562  c0,0.954-0.382,1.719-1.148,2.296c-1.042,0.803-2.559,1.205-4.555,1.205c-1.354,0-2.503-0.205-3.443-0.612  c-0.941-0.407-1.613-0.963-2.014-1.665c-0.301-0.527-0.47-1.248-0.508-2.164h-5.553c0.063,1.229,0.217,2.246,0.461,3.049  s0.631,1.571,1.158,2.306c0.526,0.733,1.183,1.367,1.967,1.899c0.783,0.534,1.702,0.958,2.757,1.271  c1.53,0.464,3.137,0.696,4.817,0.696c1.331,0,2.651-0.135,3.962-0.405c1.312-0.271,2.412-0.64,3.303-1.109  c0.891-0.472,1.638-1.02,2.239-1.647c0.604-0.627,1.104-1.434,1.507-2.418c0.4-0.984,0.602-2.093,0.602-3.322  c0-1.468-0.308-2.716-0.922-3.746C304.519,92.681,303.597,91.822,302.368,91.132 M326.721,77.995h-5.778v27.666h19.535v-4.987  h-13.757V77.995z M350.49,93.672h10.995v-4.78H350.49v-6.136h14.755v-4.761h-18.681c-1.021,0-1.852,0.829-1.852,1.852v23.962  c0,1.023,0.83,1.853,1.852,1.853h19.34v-4.78H350.49V93.672z M369.951,105.661h5.777V77.995h-5.777V105.661z M377.554,82.756h8.451  v22.905h5.758V82.756h8.45v-4.761h-22.659V82.756z M409.378,100.881v-7.209h10.995v-4.78h-10.995v-6.136h14.755v-4.761h-18.682  c-1.021,0-1.852,0.829-1.852,1.852v23.962c0,1.023,0.83,1.853,1.852,1.853h19.341v-4.78H409.378z"/>
  <path fill-rule="evenodd" clip-rule="evenodd" fill="#00B0E2" d="M31.403,79.506c2.098-2.246,4.393-4.338,6.81-6.311  c7.329,1.388,14.333,5.603,21.171,11.572c-6.346-7.062-11.668-12.003-17.048-14.765c2.388-1.762,5.95-6.316,5.253-6.902  c-2.908,1.809-5.834,3.602-8.678,5.451c-2.074,1.349-4.105,2.72-6.046,4.15c-3.468,2.546-6.654,5.261-9.327,8.288  c-2.136,2.415-3.942,5.029-5.3,7.916c-0.461,0.981-0.873,2-1.225,3.048c-0.127,0.372-0.243,0.746-0.348,1.119  c-0.091,0.3-0.173,0.596-0.246,0.895c-0.077,0.299-0.145,0.598-0.21,0.896c-0.009,0.042-0.018,0.084-0.027,0.126  c-0.058,0.278-0.112,0.555-0.161,0.833c-0.002,0.012-0.005,0.024-0.007,0.037c-0.002,0.01-0.003,0.021-0.005,0.031  c-0.026,0.15-0.051,0.302-0.074,0.453c-0.002,0.015-0.004,0.026-0.006,0.041c-0.005,0.027-0.008,0.056-0.012,0.085  c-0.022,0.144-0.043,0.287-0.062,0.432c-0.016,0.125-0.03,0.251-0.044,0.377c-0.012,0.106-0.025,0.213-0.035,0.32l-0.001,0.005  c-0.016,0.165-0.031,0.334-0.044,0.502c-0.001,0.014-0.002,0.028-0.003,0.042c-0.005,0.072-0.009,0.144-0.014,0.216  c-0.008,0.121-0.017,0.243-0.022,0.366c-0.001,0.022-0.001,0.047-0.002,0.068c-0.013,0.284-0.023,0.568-0.026,0.854  c-0.018,1.673,0.147,3.36,0.496,5.094c-3.79-4.836-6.745-10.452-8.595-16.697c-7.797-26.317,6.961-53.951,33.018-62.197  c-0.3,0.083-0.605,0.166-0.908,0.256c-27.621,8.181-43.381,37.208-35.2,64.83c2.935,9.908,8.552,18.291,15.827,24.586  c0.706,1.3,1.49,2.642,2.358,4.024c-0.541-0.999-0.987-2.062-1.346-3.175c-0.74-2.276-1.123-4.744-1.253-7.205  c-0.067-1.266-0.072-2.528-0.017-3.762c0.081-1.94,0.293-3.804,0.58-5.489c0.156-0.909,0.333-1.761,0.522-2.548  c1.13-0.35,2.284-0.63,3.473-0.839c11.045-1.942,21.277,3.021,31.156,11.649C43.881,94.948,35.603,89.154,23.764,91.237  c-0.16,0.028-0.319,0.059-0.478,0.09c0.932-2.029,2.03-3.95,3.26-5.769c0.564-0.135,1.131-0.25,1.707-0.354  c11.048-1.945,21.278,3.021,31.16,11.646C48.903,85.163,41.217,79.283,31.403,79.506"/>
  <path fill-rule="evenodd" clip-rule="evenodd" fill="#255171" d="M99.098,63.662c-0.078-0.264-0.163-0.524-0.244-0.788  c6.358,23.022-6.871,46.992-29.868,53.806c-5.138,1.521-10.334,2.06-15.388,1.725c7.827-4.688,13.889-10.758,16.358-18.094  c5.402-16.061-6.215-27.838-15.368-38.577c7.428-4.792,14.51-9.333,19.432-14.586c1.298-1.388,2.447-2.821,3.412-4.325  c0.978-1.524,1.766-3.116,2.331-4.796c0.055-0.164,2.052-5.159,1.004-11.565c-0.305-1.863-0.898-3.725-1.699-5.635  c-2.143-5.114-5.948-10.534-11.254-16.99c3.638,5.715,6.298,11.368,7.529,16.969c-8.607,0.659-15.924,6.356-25.656,16.801  c8.502-7.165,17.212-11.69,26.373-11.602c0.076,1.417,0.05,2.827-0.086,4.237c-0.034,0.36-0.079,0.719-0.128,1.079  c-8.48-0.556-16.532,3.925-27.63,12.605c9.019-5.445,17.852-8.521,26.442-7.533c-0.683,2.034-1.579,3.936-2.659,5.731  c-6.585-0.045-14.005,2.587-23.67,7.207c7.351-2.479,14.323-3.728,20.754-3.086c-4.244,5.194-10.005,9.464-16.178,13.486  c-5.538-6.704-9.605-13.079-7.298-19.939c1.289-3.834,4.731-6.703,7.869-9.241c-4.555,2.732-10.005,5.508-11.66,10.429  c-3.618,10.755,7.44,20.396,12.869,28.406c6.161,9.093,10.102,19.428,6.435,30.33c-2.572,7.631-7.641,13.27-14.403,17.678  c-1.506,0.982-3.096,1.906-4.764,2.776c-0.782,0.407-1.577,0.804-2.391,1.192c-1.908,0.903-3.901,1.749-5.971,2.548  c-5.678,2.2-11.916,4.042-18.463,5.759c7.278-0.447,15.062-1.869,22.442-4.203c2.454-0.776,4.866-1.655,7.198-2.633  c0.985-0.41,1.953-0.84,2.904-1.286c6.681,1.155,13.725,0.827,20.666-1.229C92.478,113.166,106.249,87.802,99.098,63.662"/>
  <path fill="#00B0E2" d="M118.636,67.456h1.854V53.618h-1.854V67.456z M131.586,64.819l-6.984-11.201h-2.212v13.838h1.788V56.254  l7.088,11.202h2.099V53.618h-1.779V64.819z M143.088,59.878l-2.758-0.679c-0.947-0.231-1.576-0.506-1.886-0.822  c-0.312-0.316-0.467-0.713-0.467-1.191c0-0.401,0.113-0.782,0.339-1.143c0.226-0.361,0.579-0.641,1.059-0.838  s1.081-0.297,1.803-0.297c1.079,0,1.906,0.244,2.48,0.73c0.574,0.485,0.899,1.168,0.974,2.047h1.732  c-0.025-0.929-0.226-1.713-0.602-2.353c-0.377-0.642-0.967-1.145-1.77-1.513c-0.803-0.367-1.729-0.55-2.776-0.55  c-1.011,0-1.894,0.168-2.651,0.504c-0.755,0.335-1.332,0.825-1.727,1.468c-0.395,0.644-0.592,1.357-0.592,2.143  c0,0.858,0.258,1.577,0.776,2.154s1.435,1.032,2.753,1.364l2.466,0.612c0.948,0.239,1.627,0.52,2.038,0.843  c0.411,0.324,0.617,0.809,0.617,1.454c0,0.421-0.109,0.797-0.325,1.13c-0.217,0.332-0.55,0.6-1.003,0.8  c-0.615,0.282-1.365,0.424-2.249,0.424c-0.722,0-1.331-0.104-1.826-0.315c-0.496-0.21-0.89-0.466-1.181-0.768  c-0.292-0.301-0.504-0.649-0.636-1.044c-0.088-0.271-0.141-0.628-0.16-1.073h-1.732c-0.006,0.847,0.129,1.571,0.405,2.174  c0.389,0.853,1.01,1.512,1.863,1.972c0.854,0.461,1.917,0.693,3.191,0.693c1.287,0,2.385-0.214,3.295-0.64  c0.74-0.34,1.297-0.812,1.671-1.418c0.373-0.606,0.56-1.308,0.56-2.104c0-0.929-0.254-1.701-0.763-2.316  C145.498,60.713,144.525,60.229,143.088,59.878 M146.806,55.238h4.706v12.218h1.855V55.238h4.697v-1.62h-11.258V55.238z   M160.069,67.456h1.854V53.618h-1.854V67.456z M163.166,55.238h4.706v12.218h1.855V55.238h4.696v-1.62h-11.257V55.238z   M185.228,62.166c0,1.405-0.302,2.424-0.907,3.054c-0.606,0.631-1.511,0.946-2.716,0.946c-0.847,0-1.547-0.155-2.099-0.466  c-0.552-0.311-0.934-0.717-1.144-1.219c-0.21-0.503-0.315-1.273-0.315-2.315v-8.548h-1.854v8.396c0,1.036,0.075,1.833,0.225,2.392  c0.151,0.552,0.314,0.976,0.49,1.271c0.245,0.395,0.566,0.756,0.965,1.083c0.398,0.326,0.898,0.581,1.501,0.767  c0.602,0.185,1.305,0.278,2.108,0.278c1.249,0,2.305-0.24,3.168-0.716c0.863-0.478,1.484-1.128,1.863-1.953  c0.38-0.826,0.57-1.866,0.57-3.121v-8.396h-1.855V62.166z M199.198,53.618H187.94v1.62h4.706v12.218h1.855V55.238h4.697V53.618z   M210.177,55.157c-0.567-0.6-1.262-1.062-2.084-1.393c-0.822-0.329-1.742-0.494-2.759-0.494c-1.022,0-1.947,0.166-2.776,0.499  c-0.828,0.332-1.544,0.821-2.146,1.464c-0.602,0.644-1.058,1.421-1.365,2.334c-0.308,0.913-0.461,1.916-0.461,3.007  c0,1.513,0.28,2.816,0.842,3.912c0.562,1.095,1.34,1.921,2.335,2.479c0.994,0.559,2.153,0.839,3.477,0.839  c1.576,0,2.898-0.383,3.968-1.145c1.07-0.763,1.84-1.768,2.311-3.017c0.376-0.991,0.563-2.056,0.563-3.191  c0-1.174-0.201-2.262-0.602-3.267C211.18,56.433,210.745,55.757,210.177,55.157 M209.707,63.407  c-0.329,0.86-0.869,1.535-1.619,2.025c-0.75,0.488-1.668,0.733-2.754,0.733c-0.965,0-1.81-0.197-2.531-0.594  c-0.722-0.396-1.293-1.021-1.714-1.883c-0.42-0.858-0.63-1.892-0.63-3.097c0-1.668,0.424-3.033,1.271-4.094  c0.847-1.061,2.048-1.591,3.604-1.591c1.425,0,2.592,0.494,3.503,1.482c0.909,0.988,1.364,2.389,1.364,4.202  C210.201,61.609,210.036,62.548,209.707,63.407 M227.774,59.991c0.616-0.275,1.076-0.677,1.384-1.199  c0.308-0.525,0.462-1.104,0.462-1.736c0-0.623-0.158-1.213-0.476-1.771c-0.317-0.558-0.78-0.975-1.389-1.251  c-0.603-0.276-1.343-0.415-2.222-0.415h-5.921v13.838h5.733c0.766,0,1.393-0.059,1.882-0.175c0.49-0.115,0.89-0.262,1.201-0.438  c0.311-0.176,0.6-0.414,0.87-0.721c0.27-0.305,0.5-0.698,0.691-1.186c0.191-0.486,0.287-1.007,0.287-1.567  c0-0.939-0.278-1.719-0.837-2.334C229.051,60.609,228.496,60.261,227.774,59.991 M221.468,55.238h3.453  c0.704,0,1.247,0.067,1.63,0.197c0.377,0.132,0.67,0.36,0.88,0.682c0.21,0.323,0.315,0.725,0.315,1.201  c0,0.383-0.063,0.719-0.188,1.012c-0.126,0.292-0.272,0.512-0.438,0.658c-0.166,0.148-0.384,0.263-0.654,0.345  c-0.375,0.118-0.891,0.178-1.544,0.178h-3.453V55.238z M227.704,65.211c-0.468,0.411-1.319,0.615-2.556,0.615h-3.68v-4.81h3.68  c1.13,0,1.955,0.196,2.477,0.589c0.521,0.393,0.78,0.978,0.78,1.756C228.405,64.184,228.171,64.8,227.704,65.211 M243.767,66.745  c-0.101-0.154-0.173-0.338-0.217-0.552c-0.025-0.156-0.05-0.517-0.075-1.082l-0.066-1.854c-0.024-0.759-0.173-1.332-0.443-1.722  c-0.27-0.39-0.681-0.685-1.231-0.886c0.608-0.295,1.085-0.703,1.43-1.228c0.346-0.523,0.518-1.226,0.518-2.104  c0-0.771-0.181-1.45-0.545-2.034s-0.869-1.006-1.517-1.27c-0.64-0.265-1.492-0.396-2.56-0.396h-6.316v13.838h1.855v-5.94h4.263  c0.759,0,1.315,0.079,1.667,0.236c0.352,0.156,0.605,0.383,0.763,0.679c0.156,0.294,0.251,0.743,0.281,1.344l0.095,2.119  c0.019,0.407,0.051,0.727,0.094,0.96c0.024,0.175,0.076,0.376,0.15,0.603h2.307v-0.312  C244.017,67.031,243.866,66.898,243.767,66.745 M241.404,59.126c-0.207,0.301-0.543,0.526-1.007,0.679  c-0.32,0.105-0.875,0.158-1.666,0.158h-4.132v-4.725h4.537c0.853,0,1.468,0.141,1.844,0.423c0.553,0.415,0.828,1.046,0.828,1.892  C241.808,58.199,241.674,58.724,241.404,59.126 M249.546,53.618l-5.206,13.838h1.986l1.487-4.18h5.395l1.486,4.18h1.986  l-5.018-13.838H249.546z M248.333,61.77l2.173-6.126l2.185,6.126H248.333z M263.965,59.878l-2.757-0.679  c-0.947-0.231-1.577-0.506-1.888-0.822s-0.466-0.713-0.466-1.191c0-0.401,0.113-0.782,0.339-1.143  c0.227-0.361,0.579-0.641,1.06-0.838c0.479-0.197,1.081-0.297,1.802-0.297c1.08,0,1.906,0.244,2.48,0.73  c0.574,0.485,0.898,1.168,0.975,2.047h1.731c-0.024-0.929-0.226-1.713-0.603-2.353c-0.376-0.642-0.967-1.145-1.77-1.513  c-0.804-0.367-1.729-0.55-2.776-0.55c-1.011,0-1.894,0.168-2.65,0.504c-0.756,0.335-1.332,0.825-1.728,1.468  c-0.395,0.644-0.592,1.357-0.592,2.143c0,0.858,0.258,1.577,0.776,2.154c0.518,0.577,1.436,1.032,2.753,1.364l2.466,0.612  c0.947,0.239,1.627,0.52,2.038,0.843c0.411,0.324,0.616,0.809,0.616,1.454c0,0.421-0.108,0.797-0.324,1.13  c-0.217,0.332-0.551,0.6-1.003,0.8c-0.615,0.282-1.365,0.424-2.249,0.424c-0.722,0-1.331-0.104-1.827-0.315  c-0.494-0.21-0.889-0.466-1.181-0.768c-0.292-0.301-0.504-0.649-0.635-1.044c-0.089-0.271-0.142-0.628-0.16-1.073h-1.732  c-0.006,0.847,0.128,1.571,0.405,2.174c0.389,0.853,1.01,1.512,1.863,1.972c0.854,0.461,1.917,0.693,3.19,0.693  c1.287,0,2.385-0.214,3.296-0.64c0.739-0.34,1.297-0.812,1.671-1.418c0.373-0.606,0.559-1.308,0.559-2.104  c0-0.929-0.253-1.701-0.762-2.316C266.376,60.713,265.403,60.229,263.965,59.878 M269.009,67.456h1.854V53.618h-1.854V67.456z   M274.58,53.618h-1.854v13.838h8.877v-1.63h-7.022V53.618z M285.301,61.131h7.615v-1.62h-7.615v-4.272h8.245v-1.62h-10.101v13.838  h10.232v-1.63h-8.377V61.131z M295.305,67.456h1.854V53.618h-1.854V67.456z M310.316,66.745c-0.101-0.154-0.173-0.338-0.217-0.552  c-0.025-0.156-0.05-0.517-0.075-1.082l-0.065-1.854c-0.025-0.759-0.173-1.332-0.442-1.722c-0.271-0.39-0.681-0.685-1.233-0.886  c0.608-0.295,1.085-0.703,1.431-1.228c0.345-0.523,0.518-1.226,0.518-2.104c0-0.771-0.182-1.45-0.546-2.034s-0.869-1.006-1.515-1.27  c-0.641-0.265-1.494-0.396-2.561-0.396h-6.316v13.838h1.854v-5.94h4.264c0.76,0,1.314,0.079,1.666,0.236  c0.352,0.156,0.605,0.383,0.763,0.679c0.156,0.294,0.25,0.743,0.283,1.344l0.094,2.119c0.018,0.407,0.05,0.727,0.094,0.96  c0.025,0.175,0.075,0.376,0.15,0.603h2.307v-0.312C310.567,67.031,310.417,66.898,310.316,66.745 M307.953,59.126  c-0.207,0.301-0.543,0.526-1.007,0.679c-0.319,0.105-0.875,0.158-1.666,0.158h-4.132v-4.725h4.537c0.853,0,1.468,0.141,1.845,0.423  c0.553,0.415,0.828,1.046,0.828,1.892C308.358,58.199,308.223,58.724,307.953,59.126 M323.509,55.157  c-0.569-0.6-1.265-1.062-2.087-1.393c-0.821-0.329-1.74-0.494-2.758-0.494c-1.022,0-1.947,0.166-2.776,0.499  c-0.828,0.332-1.544,0.821-2.146,1.464c-0.603,0.644-1.058,1.421-1.365,2.334s-0.46,1.916-0.46,3.007  c0,1.513,0.279,2.816,0.842,3.912c0.561,1.095,1.339,1.921,2.334,2.479c0.994,0.559,2.153,0.839,3.478,0.839  c1.575,0,2.897-0.383,3.968-1.145c1.07-0.763,1.841-1.768,2.311-3.017c0.376-0.991,0.563-2.056,0.563-3.191  c0-1.174-0.2-2.262-0.6-3.267C324.511,56.433,324.076,55.757,323.509,55.157 M323.037,63.407c-0.328,0.86-0.868,1.535-1.618,2.025  c-0.75,0.488-1.667,0.733-2.754,0.733c-0.966,0-1.81-0.197-2.531-0.594c-0.722-0.396-1.293-1.021-1.713-1.883  c-0.42-0.858-0.631-1.892-0.631-3.097c0-1.668,0.424-3.033,1.271-4.094s2.049-1.591,3.604-1.591c1.426,0,2.592,0.494,3.503,1.482  c0.907,0.988,1.364,2.389,1.364,4.202C323.532,61.609,323.367,62.548,323.037,63.407 M342.607,55.271  c-0.587-0.617-1.219-1.048-1.896-1.29c-0.679-0.241-1.459-0.362-2.345-0.362h-5.422v13.838h5.356c0.842,0,1.538-0.095,2.091-0.282  c0.796-0.276,1.426-0.638,1.892-1.083c0.608-0.598,1.104-1.393,1.487-2.388c0.383-0.992,0.573-2.115,0.573-3.363  c0-1.085-0.144-2.047-0.429-2.885S343.194,55.89,342.607,55.271 M342.169,62.797c-0.201,0.689-0.457,1.245-0.772,1.665  c-0.232,0.314-0.528,0.574-0.889,0.781c-0.361,0.207-0.728,0.357-1.098,0.452c-0.369,0.087-0.817,0.131-1.345,0.131h-3.267V55.238  h3.267c0.752,0,1.38,0.096,1.881,0.286c0.503,0.192,0.94,0.494,1.314,0.903c0.373,0.411,0.668,0.958,0.885,1.638  c0.216,0.683,0.325,1.48,0.325,2.396C342.471,61.327,342.37,62.105,342.169,62.797 M348.72,61.131h7.615v-1.62h-7.615v-4.272h8.244  v-1.62h-10.1v13.838h10.233v-1.63h-8.378V61.131z M371.893,59.878l-2.757-0.679c-0.948-0.231-1.577-0.506-1.887-0.822  c-0.312-0.316-0.468-0.713-0.468-1.191c0-0.401,0.114-0.782,0.339-1.143c0.227-0.361,0.579-0.641,1.061-0.838  c0.479-0.197,1.081-0.297,1.802-0.297c1.079,0,1.907,0.244,2.48,0.73c0.574,0.485,0.899,1.168,0.974,2.047h1.732  c-0.025-0.929-0.226-1.713-0.602-2.353c-0.378-0.642-0.967-1.145-1.771-1.513c-0.803-0.367-1.728-0.55-2.775-0.55  c-1.01,0-1.895,0.168-2.65,0.504c-0.756,0.335-1.332,0.825-1.728,1.468c-0.394,0.644-0.593,1.357-0.593,2.143  c0,0.858,0.259,1.577,0.776,2.154c0.519,0.577,1.437,1.032,2.753,1.364l2.467,0.612c0.947,0.239,1.626,0.52,2.038,0.843  c0.41,0.324,0.616,0.809,0.616,1.454c0,0.421-0.107,0.797-0.323,1.13c-0.218,0.332-0.553,0.6-1.003,0.8  c-0.616,0.282-1.365,0.424-2.25,0.424c-0.723,0-1.33-0.104-1.827-0.315c-0.495-0.21-0.889-0.466-1.182-0.768  c-0.291-0.301-0.502-0.649-0.635-1.044c-0.088-0.271-0.142-0.628-0.16-1.073h-1.732c-0.005,0.847,0.13,1.571,0.405,2.174  c0.39,0.853,1.011,1.512,1.864,1.972c0.854,0.461,1.917,0.693,3.191,0.693c1.286,0,2.384-0.214,3.294-0.64  c0.741-0.34,1.298-0.812,1.67-1.418c0.374-0.606,0.561-1.308,0.561-2.104c0-0.929-0.254-1.701-0.763-2.316  C374.303,60.713,373.33,60.229,371.893,59.878 M381.09,53.618l-5.204,13.838h1.985l1.487-4.18h5.394l1.486,4.18h1.986l-5.017-13.838  H381.09z M379.876,61.77l2.175-6.126l2.183,6.126H379.876z M396.433,49.666h-2.108l-1.713,2.775h1.289L396.433,49.666z   M397.506,62.166c0,1.405-0.303,2.424-0.908,3.054c-0.606,0.631-1.51,0.946-2.715,0.946c-0.849,0-1.548-0.155-2.101-0.466  c-0.552-0.311-0.933-0.717-1.144-1.219c-0.21-0.503-0.314-1.273-0.314-2.315v-8.548h-1.854v8.396c0,1.036,0.075,1.833,0.226,2.392  c0.15,0.552,0.314,0.976,0.489,1.271c0.245,0.395,0.566,0.756,0.966,1.083c0.398,0.326,0.898,0.581,1.501,0.767  c0.603,0.185,1.304,0.278,2.108,0.278c1.249,0,2.305-0.24,3.168-0.716c0.861-0.478,1.482-1.128,1.864-1.953  c0.378-0.826,0.568-1.866,0.568-3.121v-8.396h-1.854V62.166z M410.649,55.271c-0.588-0.617-1.219-1.048-1.896-1.29  c-0.679-0.241-1.459-0.362-2.345-0.362h-5.422v13.838h5.356c0.842,0,1.538-0.095,2.09-0.282c0.797-0.276,1.427-0.638,1.892-1.083  c0.609-0.598,1.105-1.393,1.487-2.388c0.383-0.992,0.574-2.115,0.574-3.363c0-1.085-0.144-2.047-0.428-2.885  C411.671,56.617,411.235,55.89,410.649,55.271 M410.211,62.797c-0.201,0.689-0.458,1.245-0.772,1.665  c-0.231,0.314-0.528,0.574-0.889,0.781c-0.361,0.207-0.728,0.357-1.098,0.452c-0.369,0.087-0.817,0.131-1.345,0.131h-3.268V55.238  h3.268c0.752,0,1.38,0.096,1.881,0.286c0.503,0.192,0.94,0.494,1.313,0.903c0.374,0.411,0.669,0.958,0.886,1.638  c0.216,0.683,0.324,1.48,0.324,2.396C410.512,61.327,410.412,62.105,410.211,62.797 M415.443,65.826v-4.695h7.615v-1.62h-7.615  v-4.272h8.245v-1.62h-10.1v13.838h10.232v-1.63H415.443z"/>
  <path fill="#255171" d="M124.26,93.672h10.996v-4.78H124.26v-6.136h14.756v-4.761h-18.681c-1.023,0-1.853,0.829-1.853,1.852v23.962  c0,1.023,0.83,1.853,1.853,1.853h19.339v-4.78H124.26V93.672z M160.565,95.573c0,1.53-0.173,2.672-0.518,3.425  c-0.345,0.753-0.887,1.336-1.628,1.751c-0.74,0.414-1.825,0.621-3.256,0.621c-1.468,0-2.609-0.273-3.425-0.818  c-0.816-0.547-1.342-1.177-1.581-1.892c-0.238-0.702-0.357-1.732-0.357-3.087V77.995h-5.778v16.957c0,1.494,0.062,2.635,0.188,3.425  c0.226,1.33,0.583,2.435,1.073,3.312c0.489,0.879,1.182,1.679,2.079,2.4c0.897,0.721,2.017,1.279,3.36,1.674  c1.342,0.396,2.829,0.594,4.46,0.594c1.544,0,2.939-0.177,4.187-0.527c1.249-0.352,2.3-0.815,3.153-1.393  c0.853-0.576,1.586-1.326,2.202-2.25c0.615-0.921,1.06-2.054,1.336-3.396c0.176-0.877,0.264-2.157,0.264-3.839V77.995h-5.759V95.573  z M178.351,83.322c1.079-0.69,2.327-1.036,3.745-1.036c1.68,0,3.054,0.478,4.122,1.43c0.79,0.715,1.404,1.839,1.844,3.369h5.778  c-0.126-1.179-0.37-2.207-0.734-3.086c-0.527-1.281-1.29-2.422-2.287-3.426c-0.997-1.003-2.252-1.8-3.764-2.39  c-1.512-0.59-3.19-0.885-5.034-0.885c-2.07,0-3.984,0.401-5.74,1.204c-1.381,0.615-2.56,1.459-3.538,2.531  c-0.979,1.075-1.757,2.376-2.334,3.905c-0.829,2.172-1.243,4.549-1.243,7.134c0,2.058,0.304,4.021,0.913,5.891  c0.609,1.869,1.487,3.438,2.635,4.704c1.148,1.268,2.541,2.2,4.178,2.795c1.638,0.596,3.404,0.895,5.298,0.895  c1.606,0,3.143-0.289,4.611-0.866c1.468-0.577,2.707-1.39,3.717-2.438c1.01-1.047,1.779-2.167,2.306-3.358  c0.363-0.829,0.701-2.001,1.016-3.521h-5.741c-0.365,1.269-0.806,2.256-1.326,2.964c-0.521,0.71-1.208,1.259-2.061,1.648  c-0.854,0.388-1.8,0.583-2.842,0.583c-1.317,0-2.5-0.336-3.548-1.007c-1.047-0.67-1.872-1.744-2.474-3.22  c-0.602-1.474-0.903-3.221-0.903-5.24s0.297-3.783,0.892-5.288C176.434,85.11,177.271,84.012,178.351,83.322 M203.794,77.995h-5.777  v25.813c0,1.023,0.829,1.853,1.852,1.853h17.683v-4.987h-13.758V77.995z M221.317,105.661h5.777V77.995h-5.777V105.661z   M243.083,77.995h-12.101v27.666h10.501c2.295,0,3.999-0.11,5.109-0.33c1.111-0.219,2.118-0.612,3.021-1.176  c0.903-0.564,1.734-1.431,2.494-2.598c0.758-1.167,1.367-2.635,1.825-4.403c0.458-1.77,0.688-3.701,0.688-5.795  c0-4.431-1.116-7.874-3.351-10.333C249.438,79.006,246.709,77.995,243.083,77.995 M247.958,96.74  c-0.302,0.991-0.697,1.769-1.187,2.334c-0.489,0.563-1.136,1.006-1.938,1.328c-0.804,0.317-1.814,0.479-3.03,0.479h-5.044V82.756  h5.044c1.329,0,2.368,0.148,3.114,0.443c0.747,0.295,1.404,0.806,1.976,1.535c0.571,0.727,1.017,1.677,1.337,2.85  c0.319,1.174,0.48,2.449,0.48,3.83C248.711,93.296,248.459,95.072,247.958,96.74 M264.821,93.672h10.996v-4.78h-10.996v-6.136  h14.755v-4.761h-18.681c-1.022,0-1.852,0.829-1.852,1.852v23.962c0,1.023,0.829,1.853,1.852,1.853h19.34v-4.78h-15.414V93.672z   M302.368,91.132c-0.903-0.502-2.09-0.923-3.558-1.261l-5.683-1.318c-1.694-0.376-2.73-0.703-3.105-0.978  c-0.641-0.464-0.961-1.142-0.961-2.032c0-0.992,0.405-1.817,1.215-2.475c0.81-0.66,2.079-0.989,3.811-0.989  c1.243,0,2.293,0.191,3.152,0.574s1.461,0.865,1.808,1.448c0.345,0.583,0.536,1.31,0.573,2.176h5.553  c-0.038-1.256-0.18-2.27-0.424-3.041s-0.646-1.524-1.205-2.259c-0.559-0.733-1.268-1.374-2.126-1.919  c-0.86-0.546-1.914-0.976-3.162-1.29c-1.248-0.312-2.575-0.47-3.98-0.47c-1.795,0-3.507,0.292-5.138,0.875  c-1.632,0.583-2.939,1.524-3.924,2.823c-0.985,1.299-1.478,2.958-1.478,4.978c0,1.129,0.172,2.131,0.518,3.001  c0.345,0.872,0.821,1.601,1.43,2.184c0.609,0.585,1.496,1.114,2.663,1.592c0.891,0.35,2.284,0.746,4.179,1.185l2.974,0.696  c1.343,0.314,2.346,0.604,3.011,0.866c0.665,0.251,1.164,0.589,1.496,1.017c0.333,0.427,0.499,0.946,0.499,1.562  c0,0.954-0.382,1.719-1.148,2.296c-1.042,0.803-2.559,1.205-4.555,1.205c-1.354,0-2.503-0.205-3.443-0.612  c-0.941-0.407-1.613-0.963-2.014-1.665c-0.301-0.527-0.47-1.248-0.508-2.164h-5.553c0.063,1.229,0.217,2.246,0.461,3.049  s0.631,1.571,1.158,2.306c0.526,0.733,1.183,1.367,1.967,1.899c0.783,0.534,1.702,0.958,2.757,1.271  c1.53,0.464,3.137,0.696,4.817,0.696c1.331,0,2.651-0.135,3.962-0.405c1.312-0.271,2.412-0.64,3.303-1.109  c0.891-0.472,1.638-1.02,2.239-1.647c0.604-0.627,1.104-1.434,1.507-2.418c0.4-0.984,0.602-2.093,0.602-3.322  c0-1.468-0.308-2.716-0.922-3.746C304.519,92.681,303.597,91.822,302.368,91.132 M326.721,77.995h-5.778v27.666h19.535v-4.987  h-13.757V77.995z M350.49,93.672h10.995v-4.78H350.49v-6.136h14.755v-4.761h-18.681c-1.021,0-1.852,0.829-1.852,1.852v23.962  c0,1.023,0.83,1.853,1.852,1.853h19.34v-4.78H350.49V93.672z M369.951,105.661h5.777V77.995h-5.777V105.661z M377.554,82.756h8.451  v22.905h5.758V82.756h8.45v-4.761h-22.659V82.756z M409.378,100.881v-7.209h10.995v-4.78h-10.995v-6.136h14.755v-4.761h-18.682  c-1.021,0-1.852,0.829-1.852,1.852v23.962c0,1.023,0.83,1.853,1.852,1.853h19.341v-4.78H409.378z"/>
</svg>
