<svg viewBox='0 0 315.873 199.603'>
  <path fill-rule="evenodd" clip-rule="evenodd" fill="#00B0E2" d="M167.545,126.183c-9.657,2.859-19.486,2.795-28.535,0.316  c1.682-0.582,3.337-1.211,4.955-1.89c0.837-0.346,1.658-0.71,2.47-1.086c7.088,1.089,14.52,0.666,21.85-1.506  c26.318-7.793,41.458-35.224,34.179-61.57c0.094,0.299,0.191,0.602,0.277,0.902C210.926,88.974,195.166,118,167.545,126.183"/>
  <path fill-rule="evenodd" clip-rule="evenodd" fill="#00B0E2" d="M129.64,79.553c2.098-2.247,4.393-4.338,6.81-6.311  c7.329,1.388,14.333,5.603,21.171,11.572c-6.346-7.061-11.668-12.003-17.048-14.764c2.388-1.762,5.95-6.317,5.253-6.903  c-2.908,1.809-5.834,3.602-8.678,5.451c-2.074,1.348-4.105,2.719-6.046,4.151c-3.468,2.546-6.654,5.261-9.327,8.288  c-2.136,2.415-3.942,5.029-5.3,7.916c-0.461,0.981-0.873,2-1.225,3.048c-0.127,0.372-0.243,0.746-0.348,1.119  c-0.091,0.3-0.173,0.596-0.246,0.894c-0.077,0.299-0.145,0.598-0.21,0.897c-0.009,0.042-0.018,0.084-0.027,0.126  c-0.058,0.278-0.112,0.555-0.161,0.832c-0.002,0.013-0.005,0.025-0.007,0.037c-0.002,0.011-0.003,0.022-0.005,0.032  c-0.026,0.151-0.051,0.302-0.074,0.453c-0.002,0.014-0.004,0.027-0.006,0.041c-0.005,0.028-0.008,0.056-0.012,0.085  c-0.022,0.144-0.043,0.288-0.062,0.432c-0.016,0.125-0.03,0.251-0.044,0.377c-0.012,0.106-0.025,0.213-0.035,0.32l-0.001,0.005  c-0.016,0.165-0.031,0.334-0.044,0.502c-0.001,0.014-0.001,0.028-0.002,0.042c-0.006,0.072-0.01,0.144-0.015,0.216  c-0.008,0.121-0.017,0.243-0.022,0.366c-0.001,0.023-0.001,0.046-0.002,0.069c-0.013,0.284-0.023,0.568-0.026,0.853  c-0.018,1.673,0.147,3.359,0.496,5.094c-3.79-4.836-6.745-10.452-8.595-16.697c-7.797-26.318,6.961-53.952,33.018-62.198  c-0.3,0.083-0.605,0.166-0.908,0.256c-27.621,8.181-43.381,37.208-35.2,64.83c2.935,9.908,8.552,18.291,15.827,24.586  c0.706,1.3,1.49,2.643,2.358,4.025c-0.541-1-0.987-2.064-1.346-3.176c-0.74-2.277-1.123-4.744-1.253-7.205  c-0.067-1.266-0.072-2.528-0.016-3.762c0.08-1.939,0.292-3.804,0.579-5.489c0.156-0.909,0.333-1.761,0.522-2.548  c1.13-0.35,2.284-0.63,3.473-0.839c11.045-1.942,21.277,3.02,31.156,11.649c-11.894-13.231-20.173-19.025-32.011-16.942  c-0.16,0.028-0.319,0.059-0.478,0.09c0.932-2.029,2.03-3.95,3.26-5.769c0.564-0.134,1.131-0.25,1.707-0.353  c11.048-1.946,21.278,3.02,31.16,11.645C147.14,85.21,139.454,79.33,129.64,79.553"/>
  <path fill-rule="evenodd" clip-rule="evenodd" fill="#255171" d="M197.335,63.708c-0.078-0.264-0.163-0.524-0.244-0.788  c6.358,23.022-6.871,46.992-29.867,53.806c-5.139,1.521-10.335,2.06-15.389,1.725c7.827-4.688,13.889-10.758,16.358-18.094  c5.401-16.06-6.215-27.837-15.368-38.577c7.428-4.792,14.51-9.333,19.432-14.586c1.298-1.387,2.447-2.821,3.412-4.325  c0.979-1.524,1.767-3.116,2.331-4.796c0.055-0.163,2.052-5.159,1.004-11.565c-0.305-1.863-0.897-3.725-1.699-5.635  c-2.143-5.114-5.948-10.534-11.254-16.99c3.638,5.715,6.298,11.368,7.529,16.969c-8.606,0.659-15.924,6.356-25.656,16.8  c8.502-7.165,17.212-11.69,26.373-11.601c0.076,1.417,0.05,2.827-0.086,4.237c-0.034,0.36-0.079,0.719-0.128,1.079  c-8.479-0.555-16.532,3.925-27.63,12.606c9.019-5.446,17.852-8.521,26.442-7.534c-0.684,2.035-1.579,3.936-2.659,5.732  c-6.585-0.045-14.005,2.587-23.67,7.207c7.351-2.479,14.323-3.728,20.754-3.086c-4.244,5.194-10.005,9.464-16.178,13.486  c-5.538-6.704-9.605-13.079-7.298-19.939c1.289-3.834,4.731-6.703,7.869-9.241c-4.555,2.732-10.005,5.507-11.66,10.428  c-3.618,10.755,7.44,20.396,12.869,28.407c6.161,9.092,10.103,19.427,6.435,30.33c-2.571,7.631-7.641,13.269-14.402,17.676  c-1.506,0.983-3.096,1.908-4.764,2.777c-0.782,0.407-1.577,0.805-2.391,1.192c-1.908,0.903-3.901,1.749-5.971,2.548  c-5.678,2.2-11.916,4.042-18.463,5.759c7.278-0.446,15.062-1.868,22.442-4.202c2.454-0.777,4.866-1.656,7.198-2.634  c0.985-0.41,1.953-0.84,2.904-1.286c6.681,1.155,13.725,0.827,20.666-1.229C190.715,113.212,204.486,87.849,197.335,63.708"/>
  <path fill="#00B0E2" d="M4.873,157.501h1.854v-13.836H4.873V157.501z M17.823,154.867l-6.984-11.201H8.626v13.836h1.788V146.3  l7.088,11.201h2.099v-13.836h-1.779V154.867z M29.325,149.924l-2.758-0.679c-0.947-0.231-1.576-0.506-1.886-0.822  c-0.312-0.316-0.467-0.713-0.467-1.191c0-0.4,0.113-0.781,0.339-1.143s0.579-0.641,1.059-0.838s1.081-0.297,1.803-0.297  c1.079,0,1.906,0.244,2.48,0.729c0.574,0.485,0.899,1.169,0.974,2.048h1.732c-0.025-0.929-0.226-1.714-0.602-2.354  c-0.377-0.641-0.967-1.144-1.77-1.512c-0.803-0.367-1.729-0.55-2.776-0.55c-1.011,0-1.894,0.168-2.651,0.505  c-0.755,0.334-1.332,0.824-1.727,1.467c-0.395,0.644-0.592,1.357-0.592,2.143c0,0.859,0.258,1.577,0.776,2.154  c0.518,0.578,1.435,1.033,2.753,1.365l2.466,0.611c0.948,0.239,1.627,0.52,2.038,0.844c0.411,0.322,0.617,0.807,0.617,1.453  c0,0.422-0.109,0.797-0.325,1.131c-0.217,0.332-0.55,0.598-1.003,0.799c-0.615,0.283-1.365,0.424-2.249,0.424  c-0.722,0-1.331-0.104-1.826-0.315c-0.496-0.21-0.89-0.466-1.181-0.769c-0.292-0.299-0.504-0.648-0.636-1.043  c-0.088-0.271-0.141-0.627-0.16-1.073h-1.732c-0.006,0.847,0.129,1.571,0.405,2.174c0.389,0.853,1.01,1.513,1.863,1.972  c0.854,0.461,1.917,0.692,3.191,0.692c1.287,0,2.385-0.213,3.295-0.64c0.74-0.338,1.297-0.812,1.671-1.418  c0.373-0.605,0.56-1.307,0.56-2.103c0-0.929-0.254-1.7-0.763-2.315C31.735,150.759,30.762,150.276,29.325,149.924 M33.042,145.285  h4.706v12.217h1.855v-12.217h4.697v-1.619H33.042V145.285z M46.306,157.501h1.854v-13.836h-1.854V157.501z M49.403,145.285h4.706  v12.217h1.855v-12.217h4.696v-1.619H49.403V145.285z M71.465,152.212c0,1.406-0.302,2.424-0.907,3.054  c-0.606,0.631-1.511,0.946-2.716,0.946c-0.847,0-1.547-0.155-2.099-0.465c-0.552-0.312-0.934-0.717-1.144-1.219  c-0.21-0.504-0.315-1.275-0.315-2.316v-8.547H62.43v8.396c0,1.036,0.075,1.833,0.225,2.392c0.151,0.551,0.314,0.976,0.49,1.271  c0.245,0.396,0.566,0.756,0.965,1.083c0.398,0.326,0.898,0.581,1.501,0.768c0.602,0.184,1.305,0.276,2.108,0.276  c1.249,0,2.305-0.239,3.168-0.715c0.863-0.478,1.484-1.128,1.863-1.953c0.38-0.826,0.57-1.866,0.57-3.121v-8.396h-1.855V152.212z   M85.435,143.666H74.177v1.619h4.706v12.217h1.855v-12.217h4.697V143.666z M96.414,145.205c-0.567-0.601-1.262-1.063-2.084-1.394  c-0.822-0.329-1.742-0.494-2.759-0.494c-1.022,0-1.947,0.166-2.776,0.499c-0.828,0.332-1.544,0.821-2.146,1.465  c-0.602,0.643-1.058,1.42-1.365,2.334c-0.308,0.912-0.461,1.916-0.461,3.006c0,1.513,0.28,2.816,0.842,3.912  c0.561,1.094,1.34,1.922,2.335,2.479c0.994,0.56,2.153,0.838,3.477,0.838c1.576,0,2.898-0.382,3.968-1.144  c1.07-0.763,1.84-1.768,2.311-3.017c0.376-0.991,0.564-2.056,0.564-3.19c0-1.174-0.201-2.262-0.602-3.268  C97.417,146.479,96.981,145.803,96.414,145.205 M95.944,153.455c-0.329,0.859-0.869,1.535-1.619,2.024  c-0.75,0.488-1.668,0.733-2.754,0.733c-0.965,0-1.81-0.197-2.531-0.594c-0.722-0.396-1.293-1.021-1.714-1.883  c-0.42-0.859-0.63-1.892-0.63-3.097c0-1.668,0.424-3.033,1.271-4.095c0.847-1.06,2.048-1.59,3.604-1.59  c1.425,0,2.592,0.494,3.503,1.482c0.909,0.988,1.364,2.389,1.364,4.202C96.438,151.656,96.272,152.594,95.944,153.455   M114.011,150.039c0.616-0.276,1.076-0.678,1.384-1.201c0.308-0.524,0.462-1.103,0.462-1.736c0-0.622-0.159-1.212-0.476-1.77  c-0.317-0.559-0.78-0.976-1.388-1.252c-0.603-0.276-1.343-0.414-2.222-0.414h-5.921v13.836h5.733c0.766,0,1.393-0.058,1.882-0.174  c0.49-0.115,0.89-0.262,1.201-0.438s0.6-0.415,0.87-0.721c0.27-0.305,0.5-0.698,0.692-1.186c0.191-0.486,0.287-1.008,0.287-1.566  c0-0.941-0.279-1.721-0.837-2.334C115.288,150.656,114.732,150.307,114.011,150.039 M107.705,145.285h3.454  c0.703,0,1.246,0.066,1.629,0.197c0.377,0.133,0.67,0.36,0.88,0.682c0.21,0.324,0.316,0.725,0.316,1.201  c0,0.383-0.064,0.719-0.189,1.012c-0.126,0.291-0.272,0.512-0.438,0.658c-0.166,0.148-0.384,0.262-0.654,0.344  c-0.376,0.119-0.891,0.179-1.544,0.179h-3.454V145.285z M113.94,155.257c-0.468,0.41-1.32,0.615-2.556,0.615h-3.68v-4.81h3.68  c1.13,0,1.955,0.196,2.476,0.589s0.781,0.977,0.781,1.756C114.642,154.23,114.408,154.846,113.94,155.257 M130.004,156.792  c-0.101-0.155-0.173-0.338-0.217-0.553c-0.025-0.156-0.05-0.517-0.075-1.082l-0.066-1.854c-0.025-0.759-0.173-1.332-0.443-1.722  s-0.681-0.685-1.232-0.885c0.608-0.296,1.085-0.703,1.43-1.229c0.345-0.523,0.517-1.225,0.517-2.104  c0-0.771-0.181-1.449-0.545-2.033c-0.364-0.584-0.869-1.006-1.516-1.271c-0.64-0.265-1.493-0.396-2.56-0.396h-6.316v13.836h1.855  v-5.939h4.263c0.759,0,1.315,0.079,1.667,0.236c0.351,0.156,0.605,0.383,0.762,0.678c0.157,0.295,0.251,0.743,0.282,1.346  l0.094,2.118c0.019,0.407,0.051,0.728,0.094,0.96c0.025,0.176,0.076,0.376,0.151,0.602h2.306v-0.311  C130.254,157.078,130.103,156.945,130.004,156.792 M127.641,149.171c-0.207,0.302-0.543,0.527-1.007,0.679  c-0.32,0.106-0.875,0.159-1.666,0.159h-4.132v-4.725h4.537c0.853,0,1.468,0.141,1.844,0.424c0.553,0.414,0.828,1.045,0.828,1.891  C128.044,148.246,127.911,148.77,127.641,149.171 M135.783,143.666l-5.205,13.836h1.986l1.487-4.178h5.394l1.487,4.178h1.986  l-5.017-13.836H135.783z M134.569,151.816l2.174-6.126l2.184,6.126H134.569z M150.203,149.924l-2.758-0.679  c-0.947-0.231-1.576-0.506-1.887-0.822s-0.466-0.713-0.466-1.191c0-0.4,0.113-0.781,0.339-1.143s0.579-0.641,1.059-0.838  s1.081-0.297,1.802-0.297c1.08,0,1.906,0.244,2.481,0.729c0.574,0.485,0.898,1.169,0.974,2.048h1.732  c-0.025-0.929-0.226-1.714-0.603-2.354c-0.376-0.641-0.966-1.144-1.769-1.512c-0.804-0.367-1.729-0.55-2.777-0.55  c-1.011,0-1.893,0.168-2.65,0.505c-0.756,0.334-1.332,0.824-1.727,1.467c-0.395,0.644-0.593,1.357-0.593,2.143  c0,0.859,0.259,1.577,0.777,2.154c0.517,0.578,1.435,1.033,2.753,1.365l2.466,0.611c0.947,0.239,1.627,0.52,2.038,0.844  c0.411,0.322,0.616,0.807,0.616,1.453c0,0.422-0.108,0.797-0.324,1.131c-0.217,0.332-0.551,0.598-1.003,0.799  c-0.615,0.283-1.365,0.424-2.249,0.424c-0.722,0-1.331-0.104-1.827-0.315c-0.495-0.21-0.889-0.466-1.181-0.769  c-0.292-0.299-0.504-0.648-0.635-1.043c-0.088-0.271-0.141-0.627-0.16-1.073h-1.732c-0.006,0.847,0.128,1.571,0.405,2.174  c0.389,0.853,1.01,1.513,1.863,1.972c0.854,0.461,1.917,0.692,3.191,0.692c1.287,0,2.385-0.213,3.295-0.64  c0.74-0.338,1.297-0.812,1.671-1.418c0.373-0.605,0.559-1.307,0.559-2.103c0-0.929-0.253-1.7-0.762-2.315  C152.613,150.759,151.64,150.276,150.203,149.924 M155.246,157.501h1.854v-13.836h-1.854V157.501z M160.816,143.666h-1.854v13.836  h8.877v-1.629h-7.022V143.666z M171.538,151.177h7.615v-1.62h-7.615v-4.272h8.245v-1.619h-10.101v13.836h10.232v-1.629h-8.377  V151.177z M181.542,157.501h1.854v-13.836h-1.854V157.501z M196.553,156.792c-0.101-0.155-0.173-0.338-0.217-0.553  c-0.025-0.156-0.05-0.517-0.075-1.082l-0.065-1.854c-0.025-0.759-0.173-1.332-0.442-1.722c-0.271-0.39-0.681-0.685-1.233-0.885  c0.608-0.296,1.085-0.703,1.431-1.229c0.345-0.523,0.518-1.225,0.518-2.104c0-0.771-0.182-1.449-0.546-2.033  s-0.869-1.006-1.515-1.271c-0.641-0.265-1.494-0.396-2.561-0.396h-6.316v13.836h1.854v-5.939h4.264c0.76,0,1.314,0.079,1.666,0.236  c0.352,0.156,0.605,0.383,0.763,0.678c0.156,0.295,0.25,0.743,0.283,1.346l0.094,2.118c0.018,0.407,0.05,0.728,0.094,0.96  c0.025,0.176,0.075,0.376,0.15,0.602h2.307v-0.311C196.804,157.078,196.653,156.945,196.553,156.792 M194.189,149.171  c-0.207,0.302-0.543,0.527-1.007,0.679c-0.319,0.106-0.875,0.159-1.666,0.159h-4.132v-4.725h4.537c0.853,0,1.468,0.141,1.845,0.424  c0.553,0.414,0.828,1.045,0.828,1.891C194.595,148.246,194.46,148.77,194.189,149.171 M209.746,145.205  c-0.569-0.601-1.265-1.063-2.087-1.394c-0.821-0.329-1.74-0.494-2.758-0.494c-1.022,0-1.947,0.166-2.776,0.499  c-0.828,0.332-1.544,0.821-2.146,1.465c-0.603,0.643-1.058,1.42-1.365,2.334c-0.308,0.912-0.46,1.916-0.46,3.006  c0,1.513,0.279,2.816,0.842,3.912c0.561,1.094,1.339,1.922,2.334,2.479c0.994,0.56,2.153,0.838,3.478,0.838  c1.575,0,2.897-0.382,3.968-1.144c1.07-0.763,1.841-1.768,2.311-3.017c0.376-0.991,0.563-2.056,0.563-3.19  c0-1.174-0.2-2.262-0.6-3.268C210.748,146.479,210.312,145.803,209.746,145.205 M209.273,153.455  c-0.328,0.859-0.868,1.535-1.618,2.024c-0.75,0.488-1.667,0.733-2.754,0.733c-0.966,0-1.81-0.197-2.531-0.594  c-0.722-0.396-1.293-1.021-1.713-1.883c-0.42-0.859-0.631-1.892-0.631-3.097c0-1.668,0.424-3.033,1.271-4.095  c0.847-1.06,2.049-1.59,3.604-1.59c1.426,0,2.592,0.494,3.503,1.482c0.907,0.988,1.364,2.389,1.364,4.202  C209.769,151.656,209.604,152.594,209.273,153.455 M228.844,145.317c-0.587-0.616-1.219-1.048-1.896-1.29  c-0.679-0.24-1.459-0.361-2.345-0.361h-5.422v13.836h5.356c0.842,0,1.538-0.094,2.091-0.281c0.796-0.276,1.426-0.637,1.892-1.083  c0.608-0.597,1.104-1.392,1.487-2.388c0.383-0.992,0.573-2.115,0.573-3.363c0-1.085-0.144-2.047-0.429-2.885  S229.431,145.936,228.844,145.317 M228.406,152.843c-0.201,0.689-0.457,1.244-0.772,1.665c-0.232,0.315-0.528,0.575-0.889,0.782  c-0.361,0.207-0.728,0.356-1.098,0.451c-0.369,0.088-0.817,0.131-1.345,0.131h-3.267v-10.588h3.267c0.752,0,1.38,0.096,1.881,0.287  c0.503,0.191,0.94,0.492,1.314,0.902c0.373,0.411,0.668,0.958,0.885,1.639c0.216,0.682,0.325,1.479,0.325,2.396  C228.708,151.375,228.606,152.152,228.406,152.843 M234.957,151.177h7.615v-1.62h-7.615v-4.272h8.244v-1.619h-10.1v13.836h10.233  v-1.629h-8.378V151.177z M258.13,149.924l-2.757-0.679c-0.948-0.231-1.577-0.506-1.887-0.822c-0.312-0.316-0.468-0.713-0.468-1.191  c0-0.4,0.114-0.781,0.339-1.143c0.227-0.361,0.579-0.641,1.061-0.838c0.479-0.197,1.081-0.297,1.802-0.297  c1.079,0,1.907,0.244,2.48,0.729c0.574,0.485,0.899,1.169,0.974,2.048h1.732c-0.025-0.929-0.226-1.714-0.602-2.354  c-0.378-0.641-0.967-1.144-1.771-1.512c-0.803-0.367-1.728-0.55-2.775-0.55c-1.01,0-1.895,0.168-2.65,0.505  c-0.756,0.334-1.332,0.824-1.728,1.467c-0.394,0.644-0.593,1.357-0.593,2.143c0,0.859,0.259,1.577,0.776,2.154  c0.519,0.578,1.437,1.033,2.753,1.365l2.467,0.611c0.947,0.239,1.626,0.52,2.038,0.844c0.41,0.322,0.616,0.807,0.616,1.453  c0,0.422-0.107,0.797-0.323,1.131c-0.218,0.332-0.553,0.598-1.003,0.799c-0.616,0.283-1.365,0.424-2.25,0.424  c-0.723,0-1.33-0.104-1.827-0.315c-0.495-0.21-0.889-0.466-1.182-0.769c-0.291-0.299-0.502-0.648-0.635-1.043  c-0.088-0.271-0.142-0.627-0.16-1.073h-1.732c-0.005,0.847,0.13,1.571,0.405,2.174c0.39,0.853,1.011,1.513,1.864,1.972  c0.854,0.461,1.917,0.692,3.191,0.692c1.286,0,2.384-0.213,3.294-0.64c0.741-0.338,1.298-0.812,1.67-1.418  c0.374-0.605,0.561-1.307,0.561-2.103c0-0.929-0.254-1.7-0.763-2.315C260.54,150.759,259.566,150.276,258.13,149.924   M267.327,143.666l-5.204,13.836h1.985l1.487-4.178h5.394l1.486,4.178h1.986l-5.017-13.836H267.327z M266.113,151.816l2.175-6.126  l2.183,6.126H266.113z M282.67,139.712h-2.108l-1.713,2.775h1.289L282.67,139.712z M283.743,152.212  c0,1.406-0.303,2.424-0.908,3.054c-0.606,0.631-1.51,0.946-2.715,0.946c-0.849,0-1.548-0.155-2.101-0.465  c-0.552-0.312-0.933-0.717-1.144-1.219c-0.21-0.504-0.314-1.275-0.314-2.316v-8.547h-1.854v8.396c0,1.036,0.075,1.833,0.226,2.392  c0.15,0.551,0.314,0.976,0.489,1.271c0.245,0.396,0.566,0.756,0.966,1.083c0.398,0.326,0.898,0.581,1.501,0.768  c0.603,0.184,1.304,0.276,2.108,0.276c1.249,0,2.305-0.239,3.168-0.715c0.861-0.478,1.482-1.128,1.864-1.953  c0.378-0.826,0.568-1.866,0.568-3.121v-8.396h-1.854V152.212z M296.886,145.317c-0.588-0.616-1.219-1.048-1.896-1.29  c-0.679-0.24-1.459-0.361-2.345-0.361h-5.422v13.836h5.356c0.842,0,1.538-0.094,2.09-0.281c0.797-0.276,1.427-0.637,1.892-1.083  c0.609-0.597,1.105-1.392,1.487-2.388c0.383-0.992,0.574-2.115,0.574-3.363c0-1.085-0.144-2.047-0.428-2.885  C297.908,146.664,297.472,145.936,296.886,145.317 M296.448,152.843c-0.201,0.689-0.458,1.244-0.772,1.665  c-0.231,0.315-0.528,0.575-0.889,0.782c-0.361,0.207-0.728,0.356-1.098,0.451c-0.369,0.088-0.817,0.131-1.345,0.131h-3.268v-10.588  h3.268c0.752,0,1.38,0.096,1.881,0.287c0.503,0.191,0.94,0.492,1.313,0.902c0.374,0.411,0.669,0.958,0.886,1.639  c0.216,0.682,0.324,1.479,0.324,2.396C296.749,151.375,296.648,152.152,296.448,152.843 M301.68,155.873v-4.695h7.615v-1.62h-7.615  v-4.272h8.245v-1.619h-10.1v13.836h10.232v-1.629H301.68z"/>
  <path fill="#255171" d="M10.497,183.718h10.996v-4.779H10.497v-6.137h14.756v-4.761H6.572c-1.023,0-1.853,0.829-1.853,1.852v23.962  c0,1.023,0.83,1.853,1.853,1.853h19.339v-4.78H10.497V183.718z M46.802,185.619c0,1.531-0.173,2.673-0.518,3.426  c-0.345,0.753-0.887,1.336-1.628,1.751c-0.74,0.414-1.825,0.621-3.256,0.621c-1.468,0-2.609-0.273-3.425-0.818  c-0.816-0.547-1.342-1.177-1.581-1.892c-0.238-0.702-0.357-1.732-0.357-3.088v-17.577h-5.778V185c0,1.492,0.062,2.634,0.188,3.424  c0.226,1.33,0.583,2.436,1.073,3.312c0.489,0.879,1.182,1.679,2.079,2.4c0.897,0.721,2.017,1.279,3.36,1.674  c1.342,0.396,2.829,0.594,4.46,0.594c1.544,0,2.939-0.177,4.187-0.527c1.249-0.352,2.3-0.815,3.153-1.393  c0.853-0.576,1.587-1.326,2.202-2.25c0.615-0.92,1.06-2.054,1.336-3.396c0.176-0.877,0.264-2.157,0.264-3.838v-16.958h-5.759  V185.619z M64.587,173.369c1.079-0.69,2.327-1.036,3.745-1.036c1.681,0,3.054,0.478,4.122,1.43c0.79,0.716,1.404,1.839,1.844,3.369  h5.778c-0.126-1.179-0.37-2.207-0.734-3.086c-0.527-1.281-1.29-2.422-2.287-3.427c-0.997-1.002-2.252-1.799-3.764-2.389  c-1.512-0.59-3.19-0.885-5.034-0.885c-2.07,0-3.984,0.4-5.74,1.204c-1.381,0.614-2.56,1.459-3.538,2.53  c-0.979,1.074-1.757,2.377-2.334,3.906c-0.829,2.172-1.243,4.549-1.243,7.133c0,2.059,0.304,4.021,0.913,5.892  c0.609,1.869,1.487,3.437,2.635,4.704s2.541,2.2,4.178,2.795c1.638,0.596,3.404,0.895,5.298,0.895c1.606,0,3.143-0.289,4.611-0.867  c1.468-0.576,2.707-1.389,3.717-2.437c1.01-1.047,1.779-2.167,2.306-3.358c0.363-0.83,0.701-2.002,1.016-3.521h-5.741  c-0.364,1.267-0.806,2.256-1.326,2.964c-0.521,0.711-1.208,1.258-2.061,1.648c-0.854,0.388-1.8,0.583-2.842,0.583  c-1.317,0-2.5-0.337-3.548-1.007c-1.047-0.672-1.872-1.744-2.474-3.219c-0.602-1.475-0.903-3.222-0.903-5.242  c0-2.019,0.297-3.782,0.892-5.287C62.67,175.156,63.508,174.058,64.587,173.369 M90.031,168.042h-5.777v25.813  c0,1.023,0.829,1.853,1.852,1.853h17.683v-4.987H90.031V168.042z M107.553,195.708h5.778v-27.666h-5.778V195.708z M129.32,168.042  h-12.101v27.666h10.501c2.296,0,3.999-0.11,5.11-0.33c1.111-0.22,2.118-0.612,3.021-1.177c0.903-0.563,1.734-1.43,2.493-2.596  c0.759-1.168,1.368-2.636,1.826-4.404c0.458-1.77,0.687-3.701,0.687-5.797c0-4.429-1.116-7.873-3.35-10.332  C135.675,169.052,132.946,168.042,129.32,168.042 M134.195,186.787c-0.301,0.99-0.697,1.769-1.186,2.334  c-0.489,0.563-1.136,1.006-1.938,1.326c-0.803,0.319-1.814,0.48-3.03,0.48h-5.044v-18.125h5.044c1.329,0,2.368,0.148,3.114,0.443  c0.747,0.295,1.405,0.806,1.976,1.533c0.571,0.729,1.017,1.679,1.337,2.852c0.319,1.174,0.48,2.449,0.48,3.831  C134.948,183.342,134.696,185.119,134.195,186.787 M151.058,183.718h10.996v-4.779h-10.996v-6.137h14.754v-4.761h-18.68  c-1.023,0-1.852,0.829-1.852,1.852v23.962c0,1.023,0.829,1.853,1.852,1.853h19.339v-4.78h-15.414V183.718z M188.604,181.178  c-0.903-0.502-2.09-0.923-3.558-1.261l-5.683-1.318c-1.694-0.376-2.73-0.703-3.105-0.979c-0.641-0.463-0.961-1.141-0.961-2.031  c0-0.992,0.405-1.816,1.215-2.477c0.81-0.658,2.079-0.987,3.811-0.987c1.243,0,2.293,0.192,3.152,0.573  c0.859,0.384,1.461,0.867,1.808,1.449c0.345,0.584,0.536,1.31,0.573,2.176h5.553c-0.038-1.256-0.18-2.27-0.424-3.041  s-0.646-1.524-1.205-2.258c-0.559-0.734-1.268-1.375-2.126-1.92c-0.86-0.546-1.914-0.976-3.162-1.289s-2.575-0.471-3.98-0.471  c-1.795,0-3.507,0.292-5.138,0.875c-1.632,0.583-2.939,1.523-3.924,2.823c-0.985,1.299-1.478,2.958-1.478,4.978  c0,1.129,0.172,2.131,0.518,3.002c0.345,0.871,0.821,1.6,1.43,2.182c0.609,0.586,1.496,1.115,2.663,1.593  c0.891,0.351,2.284,0.746,4.179,1.185l2.974,0.696c1.343,0.313,2.346,0.603,3.011,0.866c0.665,0.251,1.164,0.589,1.496,1.017  c0.333,0.427,0.499,0.946,0.499,1.562c0,0.953-0.382,1.719-1.148,2.296c-1.042,0.803-2.559,1.205-4.555,1.205  c-1.354,0-2.503-0.205-3.443-0.612c-0.941-0.406-1.613-0.963-2.014-1.665c-0.301-0.528-0.47-1.248-0.508-2.164h-5.553  c0.063,1.229,0.217,2.246,0.461,3.05c0.244,0.801,0.631,1.57,1.158,2.305c0.526,0.734,1.183,1.367,1.967,1.899  c0.783,0.534,1.702,0.958,2.757,1.271c1.53,0.464,3.137,0.696,4.817,0.696c1.331,0,2.651-0.135,3.962-0.405  c1.312-0.271,2.412-0.64,3.303-1.109c0.891-0.472,1.638-1.021,2.239-1.647c0.604-0.627,1.104-1.434,1.507-2.418  c0.4-0.984,0.602-2.092,0.602-3.322c0-1.469-0.308-2.717-0.922-3.746C190.756,182.727,189.834,181.869,188.604,181.178   M212.958,168.042h-5.778v27.666h19.535v-4.987h-13.757V168.042z M236.727,183.718h10.995v-4.779h-10.995v-6.137h14.755v-4.761  h-18.681c-1.021,0-1.852,0.829-1.852,1.852v23.962c0,1.023,0.83,1.853,1.852,1.853h19.34v-4.78h-15.414V183.718z M256.188,195.708  h5.777v-27.666h-5.777V195.708z M263.791,172.802h8.451v22.905H278v-22.905h8.45v-4.761h-22.659V172.802z M295.615,190.927v-7.209  h10.995v-4.779h-10.995v-6.137h14.755v-4.761h-18.682c-1.021,0-1.852,0.829-1.852,1.852v23.962c0,1.023,0.83,1.853,1.852,1.853  h19.341v-4.78H295.615z"/>
</svg>
